<?xml version="1.0" standalone="no"?>
<!DOCTYPE svg PUBLIC "-//W3C//DTD SVG 20010904//EN"
 "http://www.w3.org/TR/2001/REC-SVG-20010904/DTD/svg10.dtd">
<svg version="1.0" xmlns="http://www.w3.org/2000/svg"
 width="900.000000pt" height="900.000000pt" viewBox="0 0 900.000000 900.000000"
 preserveAspectRatio="xMidYMid meet">
<metadata>
Created by potrace 1.14, written by Peter Selinger 2001-2017
</metadata>
<g transform="translate(0.000000,900.000000) scale(0.100000,-0.100000)"
fill="#000000" stroke="none">
<path d="M4377 8914 c-1 -1 -54 -5 -117 -8 -63 -4 -131 -9 -150 -11 -19 -3
-53 -7 -75 -10 -103 -13 -125 -16 -205 -31 -47 -9 -98 -18 -115 -21 -102 -17
-459 -117 -482 -136 -7 -5 -13 -7 -13 -4 0 3 -38 -9 -84 -28 -47 -18 -87 -30
-90 -27 -4 3 -6 -1 -6 -8 0 -7 -3 -11 -6 -7 -3 3 -39 -10 -80 -28 -41 -19 -74
-31 -74 -27 0 4 -4 3 -8 -3 -7 -10 -80 -50 -91 -50 -31 0 -501 -283 -509 -305
-2 -6 -8 -10 -14 -10 -6 0 -25 -12 -43 -27 -18 -16 -48 -39 -66 -53 -33 -25
-72 -57 -139 -115 -71 -61 -267 -263 -324 -336 -33 -41 -65 -78 -70 -84 -6 -5
-27 -32 -46 -60 -19 -27 -38 -51 -42 -53 -4 -2 -8 -8 -8 -12 0 -12 -62 -104
-72 -108 -4 -2 -8 -8 -8 -13 0 -5 -17 -37 -38 -71 -74 -121 -242 -488 -242
-528 0 -6 -4 -18 -9 -28 -9 -15 -38 -104 -47 -142 -2 -8 -12 -49 -24 -90 -11
-41 -22 -86 -25 -100 -3 -14 -7 -36 -10 -50 -3 -14 -8 -36 -11 -50 -2 -14 -9
-47 -14 -75 -6 -27 -13 -75 -16 -105 -3 -30 -7 -66 -10 -80 -30 -154 -35 -666
-9 -865 2 -16 6 -52 9 -80 10 -86 17 -138 26 -190 5 -27 12 -66 15 -85 11 -64
35 -185 45 -220 5 -19 16 -64 25 -100 19 -79 47 -181 75 -275 12 -38 22 -74
24 -80 5 -22 69 -211 75 -220 3 -5 7 -18 8 -28 2 -10 9 -30 17 -45 7 -15 21
-52 31 -82 10 -30 21 -59 25 -65 4 -5 11 -21 15 -35 4 -14 13 -38 21 -55 13
-29 68 -157 115 -265 36 -83 230 -471 251 -502 10 -14 18 -33 18 -42 0 -9 3
-16 8 -16 4 0 18 -21 31 -47 14 -27 31 -56 39 -65 9 -10 11 -18 7 -18 -4 0 -1
-8 7 -17 8 -10 34 -52 58 -93 23 -41 51 -87 61 -102 11 -15 19 -32 19 -38 0
-5 3 -10 8 -10 4 0 19 -21 32 -47 14 -26 32 -55 41 -65 9 -10 22 -31 30 -46 8
-15 16 -29 19 -32 15 -15 90 -132 90 -140 0 -6 4 -10 9 -10 5 0 12 -8 15 -18
4 -10 14 -27 24 -38 9 -10 26 -32 36 -49 11 -16 23 -34 27 -40 4 -5 70 -93
146 -195 127 -169 159 -211 188 -244 6 -6 30 -36 55 -66 25 -30 49 -60 55 -66
5 -6 33 -37 60 -69 100 -118 143 -164 330 -350 209 -209 280 -274 405 -372 8
-6 40 -31 70 -55 30 -24 84 -63 120 -88 36 -24 67 -48 68 -52 2 -4 8 -8 14 -8
5 0 22 -9 37 -19 15 -11 54 -34 86 -52 33 -17 78 -42 100 -54 40 -22 167 -74
195 -80 8 -2 30 -9 49 -14 19 -6 37 -9 39 -6 3 3 11 0 18 -6 14 -12 170 -16
229 -5 93 15 291 87 307 110 4 6 8 8 8 4 0 -7 66 25 130 64 46 28 202 130 215
140 13 11 83 64 119 91 215 164 644 583 796 779 8 11 30 35 48 54 17 19 32 37
32 41 0 3 6 11 14 17 7 6 49 56 92 111 43 55 82 101 87 103 4 2 7 9 7 16 0 6
9 18 20 26 11 8 20 20 20 27 0 7 5 13 10 13 6 0 10 6 10 14 0 8 4 16 8 18 13
5 184 239 217 296 6 9 12 19 15 22 14 14 50 70 50 79 0 5 4 11 8 13 10 4 82
115 81 124 0 4 3 10 8 13 8 6 58 79 79 116 6 11 47 81 92 156 155 264 364 662
397 759 1 3 13 30 27 60 49 106 84 185 85 190 1 5 16 42 39 95 44 104 175 482
209 605 28 98 96 371 100 403 4 23 8 44 10 48 7 10 50 279 61 374 2 22 6 58 9
80 23 196 23 601 0 775 -2 19 -6 65 -9 101 -3 36 -7 72 -10 80 -3 8 -7 33 -10
56 -3 22 -8 52 -10 65 -3 12 -8 35 -11 51 -12 66 -16 83 -21 97 -3 8 -8 26
-10 40 -5 31 -9 51 -16 70 -5 13 -33 111 -43 150 -10 41 -97 275 -114 307 -5
10 -35 72 -67 138 -60 125 -116 226 -144 260 -9 11 -22 31 -28 45 -16 31 -171
240 -232 311 -50 59 -242 254 -306 311 -23 20 -86 71 -140 113 -55 42 -107 83
-117 91 -9 8 -22 14 -27 14 -6 0 -10 5 -10 10 0 6 -7 10 -15 10 -8 0 -15 5
-15 10 0 6 -6 10 -14 10 -8 0 -16 4 -18 8 -3 8 -105 74 -173 112 -19 11 -50
28 -67 38 -83 47 -341 172 -354 172 -3 0 -21 7 -40 15 -69 30 -100 43 -154 61
-30 10 -59 22 -65 26 -5 4 -18 8 -30 8 -12 0 -25 4 -30 9 -6 6 -21 11 -35 13
-14 2 -31 7 -37 11 -7 5 -13 6 -13 2 0 -3 -16 2 -36 10 -20 8 -46 17 -58 19
-11 2 -57 13 -102 25 -44 11 -98 23 -120 27 -21 3 -41 7 -44 9 -6 4 -163 32
-220 39 -19 3 -53 8 -75 11 -21 4 -60 8 -85 10 -25 2 -81 7 -125 10 -73 6
-383 13 -388 9z m-2802 -3598 c44 -3 98 -7 120 -10 22 -3 63 -8 90 -11 28 -3
57 -8 65 -10 8 -2 33 -7 55 -10 46 -6 60 -9 125 -24 25 -5 60 -13 79 -16 19
-3 38 -8 43 -11 4 -3 16 -7 27 -9 63 -12 280 -83 296 -97 5 -4 17 -8 27 -8 10
0 26 -4 36 -10 17 -10 173 -82 182 -85 7 -1 85 -42 128 -67 20 -12 46 -26 57
-32 49 -27 217 -139 256 -170 14 -12 40 -32 59 -46 181 -136 432 -411 568
-620 34 -52 65 -100 69 -106 47 -63 223 -434 235 -494 2 -8 5 -17 8 -20 11
-10 91 -278 106 -355 6 -31 7 -34 17 -75 4 -14 9 -36 11 -50 2 -14 7 -36 10
-50 3 -14 8 -43 10 -65 3 -22 12 -93 20 -158 9 -65 18 -189 22 -275 l6 -158
-99 3 c-130 3 -255 11 -295 17 -18 3 -60 8 -92 12 -58 6 -86 10 -96 14 -3 1
-9 2 -13 1 -13 -2 -203 36 -292 59 -100 26 -82 20 -205 60 -58 18 -107 34
-110 35 -3 1 -16 6 -30 12 -14 6 -50 21 -80 33 -215 85 -468 238 -670 404
-119 98 -350 333 -350 356 0 5 -4 10 -9 12 -5 2 -41 48 -80 103 -39 55 -74
105 -78 111 -37 51 -150 262 -197 368 -71 160 -156 407 -180 526 -9 46 -15 71
-20 88 -3 9 -7 28 -10 42 -40 231 -38 217 -51 325 -11 96 -14 140 -19 310 l-6
160 88 -2 c48 -1 123 -4 167 -7z m6162 -11 c6 -11 9 -23 7 -27 -3 -4 -7 -61
-10 -125 -2 -65 -6 -140 -8 -168 -7 -76 -16 -167 -21 -195 -2 -14 -7 -45 -10
-70 -8 -62 -54 -292 -62 -310 -3 -8 -7 -22 -8 -30 -3 -22 -45 -172 -54 -195
-5 -11 -28 -72 -51 -135 -88 -239 -244 -526 -365 -673 -5 -7 -23 -30 -40 -52
-69 -92 -178 -209 -308 -329 -68 -63 -326 -256 -341 -256 -2 0 -33 -18 -67
-39 -92 -57 -389 -201 -414 -201 -4 0 -21 -7 -38 -14 -56 -26 -290 -97 -367
-112 -14 -3 -41 -9 -60 -14 -54 -14 -232 -43 -330 -55 -30 -3 -71 -8 -90 -11
-19 -2 -70 -6 -113 -9 -43 -2 -82 -7 -87 -10 -5 -3 -12 -1 -15 5 -4 6 -12 7
-18 3 -7 -4 -46 -8 -87 -8 l-75 0 1 115 c1 111 10 264 18 305 2 11 7 45 10 76
4 31 9 67 11 80 3 13 7 41 11 64 7 52 29 150 55 250 12 44 23 87 24 95 2 8 4
16 5 18 2 1 3 5 5 10 1 4 4 14 8 22 3 8 15 47 28 85 12 39 29 88 39 110 9 22
30 72 46 110 15 39 33 73 39 77 5 4 7 8 3 8 -23 0 198 372 299 500 59 75 127
156 177 209 111 116 145 148 261 244 102 86 104 87 114 87 5 0 11 3 13 8 7 17
246 172 266 172 6 0 12 4 14 8 10 25 361 181 523 232 39 12 77 25 85 28 8 3
20 6 25 8 6 1 46 12 91 23 45 12 92 24 105 26 13 3 35 7 49 10 14 2 38 7 54 9
16 3 52 10 80 15 79 15 197 29 309 35 32 2 60 5 62 7 2 2 45 4 97 4 83 0 94
-2 105 -20z"/>
</g>
</svg>
